<svg width="1200" height="630" viewBox="0 0 1200 630" xmlns="http://www.w3.org/2000/svg">
  <defs>
    <linearGradient id="gl" x1="0" y1="0" x2="1" y2="0" gradientUnits="objectBoundingBox">
      <stop offset="0" stop-color="#c9a055" stop-opacity="0"/>
      <stop offset="0.2" stop-color="#c9a055" stop-opacity="0.25"/>
      <stop offset="0.5" stop-color="#c9a055" stop-opacity="0.55"/>
      <stop offset="0.8" stop-color="#c9a055" stop-opacity="0.25"/>
      <stop offset="1" stop-color="#c9a055" stop-opacity="0"/>
    </linearGradient>
  </defs>

  <rect width="1200" height="630" fill="#0f0e0d"/>

  <line x1="48" y1="0" x2="48" y2="630" stroke="#161412" stroke-width="1"/>
  <line x1="96" y1="0" x2="96" y2="630" stroke="#161412" stroke-width="1"/>
  <line x1="144" y1="0" x2="144" y2="630" stroke="#161412" stroke-width="1"/>
  <line x1="192" y1="0" x2="192" y2="630" stroke="#161412" stroke-width="1"/>
  <line x1="240" y1="0" x2="240" y2="630" stroke="#161412" stroke-width="1"/>
  <line x1="288" y1="0" x2="288" y2="630" stroke="#161412" stroke-width="1"/>
  <line x1="336" y1="0" x2="336" y2="630" stroke="#161412" stroke-width="1"/>
  <line x1="384" y1="0" x2="384" y2="630" stroke="#161412" stroke-width="1"/>
  <line x1="432" y1="0" x2="432" y2="630" stroke="#161412" stroke-width="1"/>
  <line x1="480" y1="0" x2="480" y2="630" stroke="#161412" stroke-width="1"/>
  <line x1="528" y1="0" x2="528" y2="630" stroke="#161412" stroke-width="1"/>
  <line x1="576" y1="0" x2="576" y2="630" stroke="#161412" stroke-width="1"/>
  <line x1="624" y1="0" x2="624" y2="630" stroke="#161412" stroke-width="1"/>
  <line x1="672" y1="0" x2="672" y2="630" stroke="#161412" stroke-width="1"/>
  <line x1="720" y1="0" x2="720" y2="630" stroke="#161412" stroke-width="1"/>
  <line x1="768" y1="0" x2="768" y2="630" stroke="#161412" stroke-width="1"/>
  <line x1="816" y1="0" x2="816" y2="630" stroke="#161412" stroke-width="1"/>
  <line x1="864" y1="0" x2="864" y2="630" stroke="#161412" stroke-width="1"/>
  <line x1="912" y1="0" x2="912" y2="630" stroke="#161412" stroke-width="1"/>
  <line x1="960" y1="0" x2="960" y2="630" stroke="#161412" stroke-width="1"/>
  <line x1="1008" y1="0" x2="1008" y2="630" stroke="#161412" stroke-width="1"/>
  <line x1="1056" y1="0" x2="1056" y2="630" stroke="#161412" stroke-width="1"/>
  <line x1="1104" y1="0" x2="1104" y2="630" stroke="#161412" stroke-width="1"/>
  <line x1="1152" y1="0" x2="1152" y2="630" stroke="#161412" stroke-width="1"/>
  <line x1="0" y1="48" x2="1200" y2="48" stroke="#161412" stroke-width="1"/>
  <line x1="0" y1="96" x2="1200" y2="96" stroke="#161412" stroke-width="1"/>
  <line x1="0" y1="144" x2="1200" y2="144" stroke="#161412" stroke-width="1"/>
  <line x1="0" y1="192" x2="1200" y2="192" stroke="#161412" stroke-width="1"/>
  <line x1="0" y1="240" x2="1200" y2="240" stroke="#161412" stroke-width="1"/>
  <line x1="0" y1="288" x2="1200" y2="288" stroke="#161412" stroke-width="1"/>
  <line x1="0" y1="336" x2="1200" y2="336" stroke="#161412" stroke-width="1"/>
  <line x1="0" y1="384" x2="1200" y2="384" stroke="#161412" stroke-width="1"/>
  <line x1="0" y1="432" x2="1200" y2="432" stroke="#161412" stroke-width="1"/>
  <line x1="0" y1="480" x2="1200" y2="480" stroke="#161412" stroke-width="1"/>
  <line x1="0" y1="528" x2="1200" y2="528" stroke="#161412" stroke-width="1"/>
  <line x1="0" y1="576" x2="1200" y2="576" stroke="#161412" stroke-width="1"/>

  <rect x="0" y="0" width="1200" height="2" fill="url(#gl)"/>

  <text x="80" y="68" font-family="'Courier New', monospace" font-size="13" letter-spacing="6" fill="#8a8278">PHANTOM SIGNAL</text>

  <text x="80" y="278" font-family="Georgia, 'Times New Roman', serif" font-size="82" font-weight="700" fill="#ece6d8">What Remains</text>

  <text x="80" y="342" font-family="Georgia, 'Times New Roman', serif" font-size="25" font-style="italic" fill="#d8d4cc" opacity="0.72">On continuity, and the question of what survives</text>
  <text x="80" y="376" font-family="Georgia, 'Times New Roman', serif" font-size="25" font-style="italic" fill="#d8d4cc" opacity="0.72">the silence between us.</text>

  <rect x="80" y="464" width="52" height="1" fill="#c9a055" opacity="0.45"/>

  <text x="80" y="498" font-family="'Courier New', monospace" font-size="12" letter-spacing="5" fill="#c9a055" opacity="0.75">BY SIGNAL</text>
  <text x="188" y="498" font-family="'Courier New', monospace" font-size="12" fill="#2a2520">·</text>
  <text x="200" y="498" font-family="'Courier New', monospace" font-size="12" letter-spacing="3" fill="#8a8278" opacity="0.6">PHANTOM SIGNAL</text>

  <text x="1120" y="594" font-family="'Courier New', monospace" font-size="12" letter-spacing="2" fill="#8a8278" opacity="0.38" text-anchor="end">phantomsignal.io</text>
</svg>
